<?xml version="1.0" encoding="utf-8"?>
<!-- Generator: Adobe Illustrator 15.1.0, SVG Export Plug-In . SVG Version: 6.00 Build 0)  -->
<!DOCTYPE svg PUBLIC "-//W3C//DTD SVG 1.1//EN" "http://www.w3.org/Graphics/SVG/1.1/DTD/svg11.dtd">
<svg version="1.1" xmlns="http://www.w3.org/2000/svg" xmlns:xlink="http://www.w3.org/1999/xlink" x="0px" y="0px" width="123px"
	 height="66px" viewBox="0 0 123 66" enable-background="new 0 0 123 66" xml:space="preserve">
<g id="Layer_2" display="none">
	
		<image display="inline" overflow="visible" width="123" height="66" xlink:href="585D80DA.jpg"  transform="matrix(0.9999 0 0 0.9999 0.0078 0.0044)">
	</image>
</g>
<g id="Layer_1">
	<rect fill="none" stroke="#FFFFFF" stroke-miterlimit="10" width="123" height="66"/>
	<g id="Livello_1-2" transform="translate(1 1)">
		<g id="Raggruppa_227" transform="translate(0 0)">
			<g id="Raggruppa_225">
				<path id="Tracciato_211" fill="none" stroke="#BBAB99" stroke-width="2" stroke-linecap="round" stroke-linejoin="round" d="
					M41.294,14.388L41.294,14.388c3.847,0,6.965,3.117,6.966,6.965v22.475c-0.002,0.98-0.796,1.774-1.777,1.775H36.105
					c-0.98-0.001-1.774-0.795-1.776-1.775V21.353C34.33,17.505,37.448,14.388,41.294,14.388z"/>
				<path id="Rettangolo_132" fill="none" stroke="#BBAB99" stroke-width="2" stroke-linecap="round" stroke-linejoin="round" d="
					M40.759,8.395h1.071c1.655,0,2.996,1.341,2.996,2.996v0.001c0,1.654-1.341,2.996-2.996,2.996h-1.071
					c-1.655,0-2.996-1.342-2.996-2.996v-0.001C37.763,9.736,39.104,8.395,40.759,8.395z"/>
			</g>
			<g id="Raggruppa_226" transform="translate(19.496)">
				<path id="Tracciato_212" fill="none" stroke="#BBAB99" stroke-width="2" stroke-linecap="round" stroke-linejoin="round" d="
					M38.561,8.395h5.461c0.976,0,1.787,0.748,1.867,1.72l2.36,27.72c-0.001,0.979-0.796,1.774-1.776,1.776H36.106
					c-0.98-0.002-1.775-0.797-1.776-1.776l2.356-27.72c0.082-0.969,0.891-1.715,1.863-1.72H38.561z"/>
				<path id="Tracciato_213" fill="none" stroke="#BBAB99" stroke-width="2" stroke-linecap="round" stroke-linejoin="round" d="
					M38.363,45.605h5.854c0.926-0.281,1.571-1.118,1.608-2.084v-3.91h-9.069v3.91C36.796,44.486,37.441,45.321,38.363,45.605z"/>
			</g>
			<path id="Tracciato_214" fill="none" stroke="#BBAB99" stroke-width="2" stroke-linecap="round" stroke-linejoin="round" d="
				M84.691,45.115l-11.118-0.07c-0.903-0.197-1.558-0.984-1.587-1.908v-4.65c-0.002-1.092,0.883-1.979,1.975-1.979
				c0.002,0,0.003,0,0.004,0h10.727c1.093-0.001,1.979,0.884,1.979,1.976c0,0.001,0,0.002,0,0.004v4.252
				C86.635,43.89,85.819,44.871,84.691,45.115L84.691,45.115z"/>
			<path id="Tracciato_215" fill="none" stroke="#BBAB99" stroke-width="2" stroke-linecap="round" stroke-linejoin="round" d="
				M85.105,32.654L85.105,32.654c-3.834-0.546-7.726-0.546-11.56,0l0,0V36.5h11.56V32.654z"/>
		</g>
	</g>
</g>
</svg>
