<?xml version="1.0" encoding="utf-8"?>
<!-- Generator: Adobe Illustrator 15.1.0, SVG Export Plug-In . SVG Version: 6.00 Build 0)  -->
<!DOCTYPE svg PUBLIC "-//W3C//DTD SVG 1.1//EN" "http://www.w3.org/Graphics/SVG/1.1/DTD/svg11.dtd">
<svg version="1.1" xmlns="http://www.w3.org/2000/svg" xmlns:xlink="http://www.w3.org/1999/xlink" x="0px" y="0px" width="123px"
	 height="66px" viewBox="0 0 123 66" enable-background="new 0 0 123 66" xml:space="preserve">
<g id="Layer_2" display="none">
	
		<image display="inline" overflow="visible" width="123" height="66" xlink:href="E2268854.jpg"  transform="matrix(0.9999 0 0 0.9999 0.0078 0.0083)">
	</image>
</g>
<g id="Layer_1" display="none">
	<rect display="inline" fill="none" stroke="#FFFFFF" stroke-miterlimit="10" width="123" height="66"/>
	<g id="Livello_1-2" transform="translate(-0.51 -0.5)" display="inline">
		<g id="Raggruppa_168" transform="translate(1.51 1.5)">
			<g id="Ellisse_2" transform="translate(3.491 3.922)">
				
					<circle id="Ellisse_6" fill="none" stroke="#BBAB99" stroke-width="2" stroke-linecap="round" stroke-linejoin="round" cx="44.501" cy="27.123" r="4.623"/>
			</g>
			<g id="Sottrazione_7" transform="translate(0 16.145)">
				<path id="Tracciato_182" fill="none" stroke="#BBAB99" stroke-width="2" stroke-linecap="round" stroke-linejoin="round" d="
					M56.774,31.355H39.878V31.08c-0.009-2.27,0.883-4.451,2.479-6.066c3.232-3.302,8.529-3.357,11.83-0.125
					c0.001,0,0.001,0,0.002,0.001l0.124,0.124c1.594,1.615,2.483,3.797,2.473,6.066v0.275l0,0H56.774z"/>
				<path id="Tracciato_183" fill="none" stroke="#BBAB99" stroke-width="2" stroke-linecap="round" stroke-linejoin="round" d="
					M56.775,31.354H39.878V31.08c-0.009-2.271,0.882-4.453,2.479-6.067c3.236-3.302,8.537-3.354,11.839-0.117
					c0.039,0.038,0.078,0.077,0.117,0.117c1.594,1.616,2.484,3.797,2.478,6.067v0.274l0,0H56.775z"/>
			</g>
			<g id="Sottrazione_7-2" transform="translate(24.332 16.145)">
				<path id="Tracciato_184" fill="none" stroke="#BBAB99" stroke-width="2" stroke-linecap="round" stroke-linejoin="round" d="
					M56.774,31.355H39.878V31.08c-0.008-2.27,0.883-4.451,2.479-6.066c3.232-3.302,8.529-3.357,11.83-0.125
					c0.001,0,0.002,0,0.002,0.001l0.124,0.124c1.595,1.615,2.483,3.797,2.473,6.066v0.275l0,0H56.774z"/>
				<path id="Tracciato_185" fill="none" stroke="#BBAB99" stroke-width="2" stroke-linecap="round" stroke-linejoin="round" d="
					M56.775,31.354H39.878V31.08c-0.009-2.271,0.883-4.453,2.479-6.067c3.236-3.302,8.537-3.354,11.84-0.117
					c0.039,0.038,0.078,0.077,0.116,0.117c1.595,1.616,2.485,3.797,2.478,6.067v0.274l0,0H56.775z"/>
			</g>
			<g id="Ellisse_2-2" transform="translate(28.157 3.922)">
				
					<circle id="Ellisse_7" fill="none" stroke="#BBAB99" stroke-width="2" stroke-linecap="round" stroke-linejoin="round" cx="44.501" cy="27.123" r="4.623"/>
			</g>
			<g id="Ellisse_4" transform="translate(15.824)">
				
					<circle id="Ellisse_8" fill="none" stroke="#BBAB99" stroke-width="2" stroke-linecap="round" stroke-linejoin="round" cx="44.501" cy="27.123" r="4.623"/>
			</g>
		</g>
	</g>
</g>
<g id="Layer_3">
	<g id="Livello_1-2_1_" transform="translate(1 1.414)">
		<g id="Raggruppa_208" transform="translate(0 0)">
			
				<line id="Linea_17" fill="none" stroke="#BBAB99" stroke-width="2" stroke-linecap="round" stroke-linejoin="round" x1="43.154" y1="34.583" x2="74.657" y2="34.583"/>
			<path id="Tracciato_186" fill="none" stroke="#BBAB99" stroke-width="2" stroke-linecap="round" stroke-linejoin="round" d="
				M44.123,42.954l-8.365-8.371l8.365-8.365"/>
			<path id="Tracciato_187" fill="none" stroke="#BBAB99" stroke-width="2" stroke-linecap="round" stroke-linejoin="round" d="
				M72.877,26.218l8.365,8.365l-8.365,8.371"/>
		</g>
	</g>
</g>
</svg>
