<?xml version="1.0" encoding="utf-8"?>
<!-- Generator: Adobe Illustrator 15.1.0, SVG Export Plug-In . SVG Version: 6.00 Build 0)  -->
<!DOCTYPE svg PUBLIC "-//W3C//DTD SVG 1.1//EN" "http://www.w3.org/Graphics/SVG/1.1/DTD/svg11.dtd">
<svg version="1.1" id="Layer_1" xmlns="http://www.w3.org/2000/svg" xmlns:xlink="http://www.w3.org/1999/xlink" x="0px" y="0px"
	 width="123px" height="66px" viewBox="0 0 123 66" enable-background="new 0 0 123 66" xml:space="preserve">
<g id="Layer_3">
</g>
<g id="Layer_2">
</g>
<g id="Layer_1_1_">
	<rect fill="none" stroke="#FFFFFF" stroke-miterlimit="10" width="123" height="66"/>
	<g id="Livello_1-2" transform="translate(1 1)">
		<g id="Raggruppa_210" transform="translate(0 0)">
			<path id="Tracciato_188" fill="none" stroke="#BBAB99" stroke-width="2" stroke-linecap="round" stroke-linejoin="round" d="
				M42.795,31.453v-9.652c0.001-0.976,0.792-1.767,1.768-1.768h31.873c0.977,0.001,1.768,0.792,1.769,1.768v9.652"/>
			<path id="Tracciato_189" fill="none" stroke="#BBAB99" stroke-width="2" stroke-linecap="round" stroke-linejoin="round" d="
				M40.361,50.033v-13.82c0.001-0.977,0.792-1.768,1.769-1.77h36.74c0.977,0.002,1.768,0.793,1.769,1.77v13.82"/>
			<g id="Raggruppa_209" transform="translate(7.943 4.8)">
				<path id="Tracciato_190" fill="none" stroke="#BBAB99" stroke-width="2" stroke-linecap="round" stroke-linejoin="round" d="
					M40.361,26.653v-4.736c0.002-1.039,0.846-1.881,1.884-1.884h5.869c1.039,0.003,1.882,0.845,1.885,1.884v4.736"/>
				<path id="Tracciato_191" fill="none" stroke="#BBAB99" stroke-width="2" stroke-linecap="round" stroke-linejoin="round" d="
					M55.115,26.653v-4.736c0.002-1.039,0.846-1.881,1.885-1.884h5.868c1.04,0.003,1.883,0.845,1.885,1.884v4.736"/>
			</g>
			
				<line id="Linea_18" fill="none" stroke="#BBAB99" stroke-width="2" stroke-linecap="round" stroke-linejoin="round" x1="40.583" y1="44.905" x2="80.415" y2="44.905"/>
		</g>
	</g>
</g>
</svg>
