<?xml version="1.0" encoding="utf-8"?>
<!-- Generator: Adobe Illustrator 15.1.0, SVG Export Plug-In . SVG Version: 6.00 Build 0)  -->
<!DOCTYPE svg PUBLIC "-//W3C//DTD SVG 1.1//EN" "http://www.w3.org/Graphics/SVG/1.1/DTD/svg11.dtd">
<svg version="1.1" xmlns="http://www.w3.org/2000/svg" xmlns:xlink="http://www.w3.org/1999/xlink" x="0px" y="0px" width="123px"
	 height="66px" viewBox="0 0 123 66" enable-background="new 0 0 123 66" xml:space="preserve">
<g id="Layer_2">
</g>
<g id="Layer_1">
	<rect fill="none" stroke="#FFFFFF" stroke-miterlimit="10" width="123" height="66"/>
	<g id="Livello_1-2" transform="translate(1 1)">
		<g id="Raggruppa_239" transform="translate(0 0)">
			<path id="Tracciato_226" fill="none" stroke="#BBAB99" stroke-width="2" stroke-linecap="round" stroke-linejoin="round" d="
				M44.934,50.29h31.133c3.805,0,6.889-3.084,6.889-6.887c0-0.005,0-0.009,0-0.013c0.002-1.093-0.26-2.17-0.763-3.14
				c-1.175-2.303-3.542-3.75-6.126-3.748H44.934"/>
			<path id="Tracciato_227" fill="none" stroke="#BBAB99" stroke-width="2" stroke-linecap="round" stroke-linejoin="round" d="
				M76.066,43.403H44.934c-2.671,0-4.986-0.916-6.126-3.146c-1.738-3.383-0.405-7.535,2.978-9.273
				c0.974-0.501,2.054-0.762,3.148-0.762h31.133"/>
			<path id="Tracciato_228" fill="none" stroke="#BBAB99" stroke-width="2" stroke-linecap="round" stroke-linejoin="round" d="
				M72.926,43.403h-31.74c-1.791,0.143-3.165,1.65-3.14,3.447l0,0c-0.022,1.796,1.35,3.303,3.14,3.447h31.74"/>
			<path id="Tracciato_229" fill="none" stroke="#BBAB99" stroke-width="2" stroke-linecap="round" stroke-linejoin="round" d="
				M48.073,30.222h31.741c1.734,0,3.141,1.406,3.141,3.141l0,0c-0.002,0.523-0.132,1.037-0.379,1.5
				c-0.549,1.014-1.609,1.645-2.762,1.643H48.073"/>
			<path id="Tracciato_230" fill="none" stroke="#BBAB99" stroke-width="2" stroke-linecap="round" stroke-linejoin="round" d="
				M56.961,12.214V5.929c6.785-1.302,13.34,3.142,14.642,9.926c0.596,3.104-0.005,6.318-1.683,8.997
				c-0.936,1.676-2.322,3.056-4,3.985c-0.028,0.015-0.057,0.035-0.078,0.043c-1.505,0.82-3.193,1.25-4.908,1.244
				c-5.686,0-10.801-4.174-10.801-9.859v-0.273c-0.045-3.213,1.977-6.091,5.014-7.14c4.58-1.476,9.199,1.769,9.199,6.147l0.015,0.1
				c0.085,0.777-0.116,1.56-0.565,2.199c-0.001,0.006-0.004,0.012-0.008,0.015c-1.248,1.575-3.536,1.841-5.111,0.594
				c-0.064-0.052-0.127-0.104-0.188-0.159c-0.465-0.542-0.723-1.23-0.728-1.944l-0.021-0.511"/>
		</g>
	</g>
</g>
</svg>
