<?xml version="1.0" encoding="utf-8"?>
<!-- Generator: Adobe Illustrator 15.1.0, SVG Export Plug-In . SVG Version: 6.00 Build 0)  -->
<!DOCTYPE svg PUBLIC "-//W3C//DTD SVG 1.1//EN" "http://www.w3.org/Graphics/SVG/1.1/DTD/svg11.dtd">
<svg version="1.1" xmlns="http://www.w3.org/2000/svg" xmlns:xlink="http://www.w3.org/1999/xlink" x="0px" y="0px" width="123px"
	 height="66px" viewBox="0 0 123 66" enable-background="new 0 0 123 66" xml:space="preserve">
<g id="Layer_2" display="none">
	
		<image display="inline" overflow="visible" width="123" height="66" xlink:href="757CB1C2.jpg"  transform="matrix(0.9999 0 0 0.9999 0.0078 0.0083)">
	</image>
	
		<image display="inline" overflow="visible" width="123" height="66" xlink:href="757CB1C6.jpg"  transform="matrix(0.9999 0 0 0.9999 -0.8813 0.0044)">
	</image>
	
		<image display="inline" overflow="visible" width="123" height="66" xlink:href="757CB1C1.jpg"  transform="matrix(0.9999 0 0 0.9999 2.0073 0.0083)">
	</image>
</g>
<g id="Layer_1" display="none">
	<rect display="inline" fill="none" stroke="#FFFFFF" stroke-miterlimit="10" width="123" height="66"/>
	<g id="Livello_1-2" transform="translate(-0.51 -0.5)" display="inline">
		<g id="Raggruppa_168" transform="translate(1.51 1.5)">
			<g id="Ellisse_2" transform="translate(3.491 3.922)">
				
					<circle id="Ellisse_6" fill="none" stroke="#BBAB99" stroke-width="2" stroke-linecap="round" stroke-linejoin="round" cx="44.501" cy="27.123" r="4.623"/>
			</g>
			<g id="Sottrazione_7" transform="translate(0 16.145)">
				<path id="Tracciato_182" fill="none" stroke="#BBAB99" stroke-width="2" stroke-linecap="round" stroke-linejoin="round" d="
					M56.774,31.355H39.878V31.08c-0.009-2.27,0.883-4.451,2.479-6.066c3.232-3.302,8.529-3.357,11.83-0.125
					c0.001,0,0.001,0,0.002,0.001l0.124,0.124c1.594,1.615,2.483,3.797,2.473,6.066v0.275l0,0H56.774z"/>
				<path id="Tracciato_183" fill="none" stroke="#BBAB99" stroke-width="2" stroke-linecap="round" stroke-linejoin="round" d="
					M56.775,31.354H39.878V31.08c-0.009-2.271,0.882-4.453,2.479-6.067c3.236-3.302,8.537-3.354,11.839-0.117
					c0.039,0.038,0.078,0.077,0.117,0.117c1.594,1.616,2.484,3.797,2.478,6.067v0.274l0,0H56.775z"/>
			</g>
			<g id="Sottrazione_7-2" transform="translate(24.332 16.145)">
				<path id="Tracciato_184" fill="none" stroke="#BBAB99" stroke-width="2" stroke-linecap="round" stroke-linejoin="round" d="
					M56.774,31.355H39.878V31.08c-0.008-2.27,0.883-4.451,2.479-6.066c3.232-3.302,8.529-3.357,11.83-0.125
					c0.001,0,0.002,0,0.002,0.001l0.124,0.124c1.595,1.615,2.483,3.797,2.473,6.066v0.275l0,0H56.774z"/>
				<path id="Tracciato_185" fill="none" stroke="#BBAB99" stroke-width="2" stroke-linecap="round" stroke-linejoin="round" d="
					M56.775,31.354H39.878V31.08c-0.009-2.271,0.883-4.453,2.479-6.067c3.236-3.302,8.537-3.354,11.84-0.117
					c0.039,0.038,0.078,0.077,0.116,0.117c1.595,1.616,2.485,3.797,2.478,6.067v0.274l0,0H56.775z"/>
			</g>
			<g id="Ellisse_2-2" transform="translate(28.157 3.922)">
				
					<circle id="Ellisse_7" fill="none" stroke="#BBAB99" stroke-width="2" stroke-linecap="round" stroke-linejoin="round" cx="44.501" cy="27.123" r="4.623"/>
			</g>
			<g id="Ellisse_4" transform="translate(15.824)">
				
					<circle id="Ellisse_8" fill="none" stroke="#BBAB99" stroke-width="2" stroke-linecap="round" stroke-linejoin="round" cx="44.501" cy="27.123" r="4.623"/>
			</g>
		</g>
	</g>
</g>
<g id="Layer_3" display="none">
	<g id="Livello_1-2_1_" transform="translate(1 1.414)" display="inline">
		<g id="Raggruppa_208" transform="translate(0 0)">
			
				<line id="Linea_17" fill="none" stroke="#BBAB99" stroke-width="2" stroke-linecap="round" stroke-linejoin="round" x1="43.154" y1="34.583" x2="74.657" y2="34.583"/>
			<path id="Tracciato_186" fill="none" stroke="#BBAB99" stroke-width="2" stroke-linecap="round" stroke-linejoin="round" d="
				M44.123,42.954l-8.365-8.371l8.365-8.365"/>
			<path id="Tracciato_187" fill="none" stroke="#BBAB99" stroke-width="2" stroke-linecap="round" stroke-linejoin="round" d="
				M72.877,26.218l8.365,8.365l-8.365,8.371"/>
		</g>
	</g>
</g>
<g id="Layer_4" display="none">
	<g id="Livello_1-2_2_" transform="translate(-0.5 -0.5)" display="inline">
		<g id="Raggruppa_207" transform="translate(1.5 1.5)">
			<path id="Rettangolo_120" fill="none" stroke="#BBAB99" stroke-width="2" stroke-linecap="round" stroke-linejoin="round" d="
				M40.83,13.893h39.34c1.563,0,2.83,1.268,2.83,2.83V32.41c0,1.563-1.268,2.83-2.83,2.83H40.83c-1.563,0-2.83-1.268-2.83-2.83
				V16.723C38,15.16,39.267,13.893,40.83,13.893z"/>
			
				<line id="Linea_14" fill="none" stroke="#BBAB99" stroke-width="2" stroke-linecap="round" stroke-linejoin="round" x1="43.511" y1="28.297" x2="69.188" y2="28.297"/>
			
				<line id="Linea_15" fill="none" stroke="#BBAB99" stroke-width="2" stroke-linecap="round" stroke-linejoin="round" x1="73.249" y1="28.297" x2="76.951" y2="28.297"/>
			
				<line id="Linea_16" fill="none" stroke="#BBAB99" stroke-width="2" stroke-linecap="round" stroke-linejoin="round" x1="43.511" y1="31.899" x2="76.951" y2="31.899"/>
			<path id="Tracciato_177" fill="none" stroke="#BBAB99" stroke-width="2" stroke-linecap="round" stroke-linejoin="round" d="
				M48.8,48.107c0,0,1.778-1.187,1.778-2.666c0-1.479-1.778-2.076-1.778-3.561s1.778-2.666,1.778-2.666"/>
			<path id="Tracciato_178" fill="none" stroke="#BBAB99" stroke-width="2" stroke-linecap="round" stroke-linejoin="round" d="
				M54.206,48.107c0,0,1.778-1.187,1.778-2.666c0-1.479-1.778-2.076-1.778-3.561s1.778-2.666,1.778-2.666"/>
			<path id="Tracciato_179" fill="none" stroke="#BBAB99" stroke-width="2" stroke-linecap="round" stroke-linejoin="round" d="
				M59.611,48.107c0,0,1.779-1.187,1.779-2.666c0-1.479-1.779-2.076-1.779-3.561s1.779-2.666,1.779-2.666"/>
			<path id="Tracciato_180" fill="none" stroke="#BBAB99" stroke-width="2" stroke-linecap="round" stroke-linejoin="round" d="
				M65.018,48.107c0,0,1.777-1.187,1.777-2.666c0-1.479-1.777-2.076-1.777-3.561s1.777-2.666,1.777-2.666"/>
			<path id="Tracciato_181" fill="none" stroke="#BBAB99" stroke-width="2" stroke-linecap="round" stroke-linejoin="round" d="
				M70.422,48.107c0,0,1.778-1.187,1.778-2.666c0-1.479-1.778-2.076-1.778-3.561s1.778-2.666,1.778-2.666"/>
		</g>
	</g>
</g>
<g id="Layer_5">
	<g id="Livello_1-2_3_" transform="translate(-548 261)">
		<g id="Raggruppa_219" transform="translate(549 -260)">
			<path id="Tracciato_206" fill="none" stroke="#BBAB99" stroke-width="2" stroke-linecap="round" stroke-linejoin="round" d="
				M79.308,12.095h1.37c1.016,0.001,1.838,0.824,1.84,1.839v9.846c-0.002,1.016-0.824,1.838-1.84,1.84h-1.199"/>
			<path id="Tracciato_207" fill="none" stroke="#BBAB99" stroke-width="2" stroke-linecap="round" stroke-linejoin="round" d="
				M74.426,46.318v3.091c0,1.015-0.823,1.838-1.838,1.839H47.937c-1.015-0.001-1.838-0.824-1.839-1.839v-3.091"/>
			<path id="Tracciato_208" fill="none" stroke="#BBAB99" stroke-width="2" stroke-linecap="round" stroke-linejoin="round" d="
				M46.098,9.738l2.783-1.734c6.965-4.336,15.79-4.336,22.754,0l2.783,1.734"/>
			<path id="Tracciato_209" fill="none" stroke="#BBAB99" stroke-width="2" stroke-linecap="round" stroke-linejoin="round" d="
				M38.482,9.738l5.469,5.469V44.29c-0.001,1.097,0.888,1.985,1.984,1.985c0,0,0.001,0,0.002,0h28.645
				c1.097,0.001,1.986-0.887,1.986-1.983c0-0.001,0-0.001,0-0.002V11.725c0-1.097-0.888-1.986-1.984-1.986c0,0-0.001,0-0.002,0
				H38.482z"/>
			<path id="Rettangolo_121" fill="none" stroke="#BBAB99" stroke-width="2" stroke-linecap="round" stroke-linejoin="round" d="
				M60.262,15.053L60.262,15.053c1.354,0,2.451,1.098,2.451,2.451v21.077c0,1.354-1.097,2.451-2.451,2.451l0,0
				c-1.354,0-2.45-1.098-2.45-2.451V17.504C57.812,16.15,58.908,15.053,60.262,15.053z"/>
			
				<line id="Linea_25" fill="none" stroke="#BBAB99" stroke-width="2" stroke-linecap="round" stroke-linejoin="round" x1="57.812" y1="37.018" x2="60.287" y2="37.018"/>
			
				<line id="Linea_26" fill="none" stroke="#BBAB99" stroke-width="2" stroke-linecap="round" stroke-linejoin="round" x1="57.812" y1="32.388" x2="60.287" y2="32.388"/>
			
				<line id="Linea_27" fill="none" stroke="#BBAB99" stroke-width="2" stroke-linecap="round" stroke-linejoin="round" x1="57.812" y1="27.759" x2="60.287" y2="27.759"/>
			
				<line id="Linea_28" fill="none" stroke="#BBAB99" stroke-width="2" stroke-linecap="round" stroke-linejoin="round" x1="57.812" y1="23.13" x2="60.287" y2="23.13"/>
			
				<line id="Linea_29" fill="none" stroke="#BBAB99" stroke-width="2" stroke-linecap="round" stroke-linejoin="round" x1="57.812" y1="18.507" x2="60.287" y2="18.507"/>
		</g>
	</g>
</g>
</svg>
