<?xml version="1.0" encoding="utf-8"?>
<!-- Generator: Adobe Illustrator 15.1.0, SVG Export Plug-In . SVG Version: 6.00 Build 0)  -->
<!DOCTYPE svg PUBLIC "-//W3C//DTD SVG 1.1//EN" "http://www.w3.org/Graphics/SVG/1.1/DTD/svg11.dtd">
<svg version="1.1" xmlns="http://www.w3.org/2000/svg" xmlns:xlink="http://www.w3.org/1999/xlink" x="0px" y="0px" width="123px"
	 height="66px" viewBox="0 0 123 66" enable-background="new 0 0 123 66" xml:space="preserve">
<g id="Layer_2">
</g>
<g id="Layer_1">
	<rect fill="none" stroke="#FFFFFF" stroke-miterlimit="10" width="123" height="66"/>
	<g id="Livello_1-2" transform="translate(1 1)">
		<g id="Raggruppa_241" transform="translate(0 0)">
			<path id="Tracciato_234" fill="none" stroke="#BBAB99" stroke-width="2" stroke-linejoin="round" d="M40.476,28.561
				c0-6.506,5.274-11.78,11.779-11.781h11.78c6.506,0,11.779,5.275,11.78,11.781H40.476z"/>
			<path id="Tracciato_235" fill="none" stroke="#BBAB99" stroke-width="2" stroke-linecap="round" stroke-linejoin="round" d="
				M80.524,5H65.212c-5.205,0.001-9.424,4.22-9.425,9.425v2.355"/>
			<path id="Tracciato_236" fill="none" stroke="#BBAB99" stroke-width="2" stroke-linecap="round" stroke-linejoin="round" d="
				M60.496,16.78v-2.355c-0.001-2.6,2.106-4.708,4.707-4.709c0.001,0,0.001,0,0.002,0h15.312"/>
			
				<line id="Linea_36" fill="none" stroke="#BBAB99" stroke-width="2" stroke-linecap="round" stroke-linejoin="round" x1="47.246" y1="50.395" x2="47.246" y2="55"/>
			
				<line id="Linea_37" fill="none" stroke="#BBAB99" stroke-width="2" stroke-linecap="round" stroke-linejoin="round" x1="54.513" y1="50.395" x2="54.513" y2="55"/>
			
				<line id="Linea_38" fill="none" stroke="#BBAB99" stroke-width="2" stroke-linecap="round" stroke-linejoin="round" x1="61.776" y1="50.395" x2="61.776" y2="55"/>
			
				<line id="Linea_39" fill="none" stroke="#BBAB99" stroke-width="2" stroke-linecap="round" stroke-linejoin="round" x1="69.043" y1="50.395" x2="69.043" y2="55"/>
			
				<line id="Linea_40" fill="none" stroke="#BBAB99" stroke-width="2" stroke-linecap="round" stroke-linejoin="round" x1="47.246" y1="41.828" x2="47.246" y2="46.434"/>
			
				<line id="Linea_41" fill="none" stroke="#BBAB99" stroke-width="2" stroke-linecap="round" stroke-linejoin="round" x1="54.513" y1="41.828" x2="54.513" y2="46.434"/>
			
				<line id="Linea_42" fill="none" stroke="#BBAB99" stroke-width="2" stroke-linecap="round" stroke-linejoin="round" x1="61.776" y1="41.828" x2="61.776" y2="46.434"/>
			
				<line id="Linea_43" fill="none" stroke="#BBAB99" stroke-width="2" stroke-linecap="round" stroke-linejoin="round" x1="69.043" y1="41.828" x2="69.043" y2="46.434"/>
			
				<line id="Linea_44" fill="none" stroke="#BBAB99" stroke-width="2" stroke-linecap="round" stroke-linejoin="round" x1="47.246" y1="33.027" x2="47.246" y2="37.633"/>
			
				<line id="Linea_45" fill="none" stroke="#BBAB99" stroke-width="2" stroke-linecap="round" stroke-linejoin="round" x1="54.513" y1="33.027" x2="54.513" y2="37.633"/>
			
				<line id="Linea_46" fill="none" stroke="#BBAB99" stroke-width="2" stroke-linecap="round" stroke-linejoin="round" x1="61.776" y1="33.027" x2="61.776" y2="37.633"/>
			
				<line id="Linea_47" fill="none" stroke="#BBAB99" stroke-width="2" stroke-linecap="round" stroke-linejoin="round" x1="69.043" y1="33.027" x2="69.043" y2="37.633"/>
		</g>
	</g>
</g>
</svg>
