<?xml version="1.0" encoding="utf-8"?>
<!-- Generator: Adobe Illustrator 15.1.0, SVG Export Plug-In . SVG Version: 6.00 Build 0)  -->
<!DOCTYPE svg PUBLIC "-//W3C//DTD SVG 1.1//EN" "http://www.w3.org/Graphics/SVG/1.1/DTD/svg11.dtd">
<svg version="1.1" xmlns="http://www.w3.org/2000/svg" xmlns:xlink="http://www.w3.org/1999/xlink" x="0px" y="0px" width="123px"
	 height="66px" viewBox="0 0 123 66" enable-background="new 0 0 123 66" xml:space="preserve">
<g id="Layer_2">
</g>
<g id="Layer_1">
	<rect fill="none" stroke="#FFFFFF" stroke-miterlimit="10" width="123" height="66"/>
	<g id="Livello_1-2" transform="translate(1 1)">
		<g id="Raggruppa_238" transform="translate(0 0)">
			<g id="Raggruppa_234" transform="translate(5.357)">
				<path id="Tracciato_225" fill="none" stroke="#BBAB99" stroke-width="2" stroke-linejoin="round" d="M31.856,30.175v-19.35
					c0.002-1.093,0.887-1.978,1.979-1.979h47.961c1.095-0.004,1.986,0.881,1.99,1.977c0,0.001,0,0.002,0,0.003V39.58
					c-0.003,1.095-0.893,1.981-1.988,1.979h-0.002H37.213"/>
				
					<line id="Linea_8" fill="none" stroke="#BBAB99" stroke-width="2" stroke-linecap="round" stroke-linejoin="round" x1="57.821" y1="46.846" x2="57.821" y2="41.888"/>
				<path id="Linea_8-2" fill="none" stroke="#BBAB99" stroke-width="2" stroke-linecap="round" stroke-linejoin="round" d="
					M47.499,48.466L47.499,48.466c6.771-1.721,13.864-1.721,20.636,0l0,0"/>
				<g id="Raggruppa_233" transform="translate(20.664 11.056)">
					
						<line id="Linea_6" fill="none" stroke="#BBAB99" stroke-width="2" stroke-linecap="round" stroke-linejoin="round" x1="33.646" y1="17.65" x2="40.66" y2="10.643"/>
					
						<line id="Linea_7" fill="none" stroke="#BBAB99" stroke-width="2" stroke-linecap="round" stroke-linejoin="round" x1="31.856" y1="12.349" x2="35.359" y2="8.846"/>
					
						<line id="Linea_8-3" fill="none" stroke="#BBAB99" stroke-width="2" stroke-linecap="round" stroke-linejoin="round" x1="38.947" y1="19.447" x2="42.457" y2="15.944"/>
				</g>
			</g>
			<g id="Raggruppa_237" transform="translate(0 21.329)">
				<path id="Rettangolo_134" fill="none" stroke="#BBAB99" stroke-width="2" stroke-linejoin="round" d="M34.687,8.846h5.046
					c1.563,0,2.83,1.268,2.83,2.83v19.319c0,1.563-1.268,2.83-2.83,2.83h-5.046c-1.563,0-2.83-1.268-2.83-2.83V11.676
					C31.856,10.113,33.123,8.846,34.687,8.846z"/>
				
					<line id="Linea_8-4" fill="none" stroke="#BBAB99" stroke-width="2" stroke-linecap="round" stroke-linejoin="round" x1="34.73" y1="16.349" x2="39.688" y2="16.349"/>
				
					<circle id="Ellisse_9" fill="none" stroke="#BBAB99" stroke-width="2" stroke-linecap="round" stroke-linejoin="round" cx="37.213" cy="24.72" r="2.329"/>
				<g id="Raggruppa_235" transform="translate(2.874 10.776)">
					
						<polygon id="Rettangolo_135" fill="none" stroke="#BBAB99" stroke-width="2" stroke-linecap="round" stroke-linejoin="round" points="
						31.856,8.846 31.856,8.846 31.856,8.846 					"/>
					
						<polygon id="Rettangolo_136" fill="none" stroke="#BBAB99" stroke-width="2" stroke-linecap="round" stroke-linejoin="round" points="
						36.814,8.846 36.814,8.846 36.814,8.846 					"/>
					
						<polygon id="Rettangolo_137" fill="none" stroke="#BBAB99" stroke-width="2" stroke-linecap="round" stroke-linejoin="round" points="
						34.339,8.846 34.339,8.846 34.339,8.846 					"/>
				</g>
				<g id="Raggruppa_236" transform="translate(2.874 20.923)">
					
						<polygon id="Rettangolo_138" fill="none" stroke="#BBAB99" stroke-width="2" stroke-linecap="round" stroke-linejoin="round" points="
						31.856,8.846 31.856,8.846 31.856,8.846 					"/>
					
						<polygon id="Rettangolo_139" fill="none" stroke="#BBAB99" stroke-width="2" stroke-linecap="round" stroke-linejoin="round" points="
						36.814,8.846 36.814,8.846 36.814,8.846 					"/>
					
						<polygon id="Rettangolo_140" fill="none" stroke="#BBAB99" stroke-width="2" stroke-linecap="round" stroke-linejoin="round" points="
						34.339,8.846 34.339,8.846 34.339,8.846 					"/>
				</g>
				
					<polygon id="Rettangolo_141" fill="none" stroke="#BBAB99" stroke-width="2" stroke-linecap="round" stroke-linejoin="round" points="
					37.213,12.629 37.213,12.629 37.213,12.629 				"/>
			</g>
		</g>
	</g>
</g>
</svg>
