<?xml version="1.0" encoding="utf-8"?>
<!-- Generator: Adobe Illustrator 15.1.0, SVG Export Plug-In . SVG Version: 6.00 Build 0)  -->
<!DOCTYPE svg PUBLIC "-//W3C//DTD SVG 1.1//EN" "http://www.w3.org/Graphics/SVG/1.1/DTD/svg11.dtd">
<svg version="1.1" xmlns="http://www.w3.org/2000/svg" xmlns:xlink="http://www.w3.org/1999/xlink" x="0px" y="0px" width="123px"
	 height="66px" viewBox="0 0 123 66" enable-background="new 0 0 123 66" xml:space="preserve">
<g id="Layer_2_1_">
</g>
<g id="Layer_1">
	<g id="Layer_3">
	</g>
	<g id="Layer_2">
	</g>
	<g id="Livello_1-2" transform="translate(1 1)">
		<g id="Raggruppa_terrace" transform="translate(0 0)">
			<!-- Terrace deck/floor -->
			<path id="deck" fill="none" stroke="#BAAA98" stroke-width="2" stroke-linecap="round" stroke-linejoin="round" d="
				M15,45 L15,25 L65,10 L115,25 L115,45 Z"/>
			<!-- Floor boards -->
			<line id="board1" fill="none" stroke="#BAAA98" stroke-width="2" stroke-linecap="round" stroke-linejoin="round" x1="25" y1="45" x2="50" y2="20"/>
			<line id="board2" fill="none" stroke="#BAAA98" stroke-width="2" stroke-linecap="round" stroke-linejoin="round" x1="35" y1="45" x2="75" y2="18"/>
			<line id="board3" fill="none" stroke="#BAAA98" stroke-width="2" stroke-linecap="round" stroke-linejoin="round" x1="55" y1="45" x2="100" y2="22"/>
			<!-- Side railing -->
			<line id="railing_left" fill="none" stroke="#BAAA98" stroke-width="2" stroke-linecap="round" stroke-linejoin="round" x1="15" y1="25" x2="15" y2="45"/>
			<line id="railing_right" fill="none" stroke="#BAAA98" stroke-width="2" stroke-linecap="round" stroke-linejoin="round" x1="115" y1="25" x2="115" y2="45"/>
			<!-- Front railing posts -->
			<line id="post1" fill="none" stroke="#BAAA98" stroke-width="2" stroke-linecap="round" stroke-linejoin="round" x1="35" y1="32" x2="35" y2="45"/>
			<line id="post2" fill="none" stroke="#BAAA98" stroke-width="2" stroke-linecap="round" stroke-linejoin="round" x1="65" y1="17" x2="65" y2="45"/>
			<line id="post3" fill="none" stroke="#BAAA98" stroke-width="2" stroke-linecap="round" stroke-linejoin="round" x1="95" y1="30" x2="95" y2="45"/>
			<!-- Railing top -->
			<path id="railing_top" fill="none" stroke="#BAAA98" stroke-width="2" stroke-linecap="round" stroke-linejoin="round" d="
				M15,28 L35,25 L65,14 L95,26 L115,28"/>
			<!-- Planter box -->
			<rect id="planter" x="45" y="18" width="15" height="8" fill="none" stroke="#BAAA98" stroke-width="2" stroke-linecap="round" stroke-linejoin="round"/>
			<!-- Plant -->
			<path id="plant" fill="none" stroke="#BAAA98" stroke-width="2" stroke-linecap="round" stroke-linejoin="round" d="
				M50,18 Q48,12 50,8 Q52,12 50,18"/>
			<path id="plant2" fill="none" stroke="#BAAA98" stroke-width="2" stroke-linecap="round" stroke-linejoin="round" d="
				M55,18 Q53,12 55,8 Q57,12 55,18"/>
		</g>
	</g>
</g>
</svg>
