<?xml version="1.0" encoding="utf-8"?>
<!-- Generator: Adobe Illustrator 15.1.0, SVG Export Plug-In . SVG Version: 6.00 Build 0)  -->
<!DOCTYPE svg PUBLIC "-//W3C//DTD SVG 1.1//EN" "http://www.w3.org/Graphics/SVG/1.1/DTD/svg11.dtd">
<svg version="1.1" id="Layer_1" xmlns="http://www.w3.org/2000/svg" xmlns:xlink="http://www.w3.org/1999/xlink" x="0px" y="0px"
	 width="123px" height="66px" viewBox="0 0 123 66" enable-background="new 0 0 123 66" xml:space="preserve">
<g id="Layer_3">
</g>
<g id="Layer_2">
</g>
<g id="Layer_1_1_">
	<rect fill="none" stroke="#FFFFFF" stroke-miterlimit="10" width="123" height="66"/>
	<g id="Livello_1-2" transform="translate(-0.5 -0.5)">
		<g id="Raggruppa_424" transform="translate(1.5 1.5)">
			<path id="Rettangolo_164" fill="none" stroke="#BBAB99" stroke-width="2" stroke-linecap="round" stroke-linejoin="round" d="
				M43.83,16.5h33.34c1.563,0,2.83,1.267,2.83,2.83v33.34c0,1.563-1.268,2.83-2.83,2.83H43.83c-1.563,0-2.83-1.268-2.83-2.83V19.33
				C41,17.767,42.267,16.5,43.83,16.5z"/>
			
				<circle id="Ellisse_15" fill="none" stroke="#BBAB99" stroke-width="2" stroke-linecap="round" stroke-linejoin="round" cx="53.25" cy="40.014" r="4.553"/>
			
				<circle id="Ellisse_16" fill="none" stroke="#BBAB99" stroke-width="2" stroke-linecap="round" stroke-linejoin="round" cx="67.756" cy="40.014" r="4.553"/>
			
				<circle id="Ellisse_17" fill="none" stroke="#BBAB99" stroke-width="2" stroke-linecap="round" stroke-linejoin="round" cx="53.25" cy="26.256" r="4.553"/>
			
				<circle id="Ellisse_18" fill="none" stroke="#BBAB99" stroke-width="2" stroke-linecap="round" stroke-linejoin="round" cx="67.756" cy="26.256" r="4.553"/>
			
				<line id="Linea_8" fill="none" stroke="#BBAB99" stroke-width="2" stroke-linecap="round" stroke-linejoin="round" x1="45.165" y1="48.198" x2="79.177" y2="48.198"/>
			
				<line id="Linea_8-2" fill="none" stroke="#BBAB99" stroke-width="2" stroke-linecap="round" stroke-linejoin="round" x1="73.127" y1="51.852" x2="77.238" y2="51.852"/>
			
				<circle id="Ellisse_19" fill="none" stroke="#BBAB99" stroke-width="2" stroke-linecap="round" stroke-linejoin="round" cx="51.186" cy="51.852" r="0.771"/>
			
				<circle id="Ellisse_20" fill="none" stroke="#BBAB99" stroke-width="2" stroke-linecap="round" stroke-linejoin="round" cx="56.88" cy="51.852" r="0.771"/>
			
				<circle id="Ellisse_21" fill="none" stroke="#BBAB99" stroke-width="2" stroke-linecap="round" stroke-linejoin="round" cx="62.576" cy="51.852" r="0.771"/>
			
				<circle id="Ellisse_22" fill="none" stroke="#BBAB99" stroke-width="2" stroke-linecap="round" stroke-linejoin="round" cx="68.277" cy="51.852" r="0.771"/>
		</g>
	</g>
</g>
</svg>
