<svg version="1.1" xmlns="http://www.w3.org/2000/svg" xmlns:xlink="http://www.w3.org/1999/xlink" x="0px" y="0px" width="123px" height="66px" viewBox="0 0 123 66" enable-background="new 0 0 123 66" xml:space="preserve">
    <g transform="translate(35 1)">
        <g id="wine-bottle" transform="translate(10, 0)">
            <path d="M25,15 L25,35 C25,45 35,45 35,35 L35,15" fill="none" stroke="#BAAA98" stroke-width="2" stroke-linecap="round" stroke-linejoin="round"/>
            <path d="M20,15 L40,15" fill="none" stroke="#BAAA98" stroke-width="2" stroke-linecap="round" stroke-linejoin="round"/>
            <path d="M28,10 L32,10" fill="none" stroke="#BAAA98" stroke-width="2" stroke-linecap="round" stroke-linejoin="round"/>
            <path d="M30,10 L30,5" fill="none" stroke="#BAAA98" stroke-width="2" stroke-linecap="round" stroke-linejoin="round"/>
            <path d="M25,5 L35,5" fill="none" stroke="#BAAA98" stroke-width="2" stroke-linecap="round" stroke-linejoin="round"/>
        </g>
        <g id="grape" transform="translate(0, 25)">
            <circle cx="10" cy="10" r="3" fill="none" stroke="#BAAA98" stroke-width="2"/>
            <circle cx="15" cy="15" r="3" fill="none" stroke="#BAAA98" stroke-width="2"/>
            <circle cx="5" cy="15" r="3" fill="none" stroke="#BAAA98" stroke-width="2"/>
            <circle cx="10" cy="20" r="3" fill="none" stroke="#BAAA98" stroke-width="2"/>
            <path d="M10,10 L10,5" fill="none" stroke="#BAAA98" stroke-width="2" stroke-linecap="round"/>
            <path d="M10,5 C5,0 15,0 10,5" fill="none" stroke="#BAAA98" stroke-width="2" stroke-linecap="round"/>
        </g>
    </g>
</svg>
