<?xml version="1.0" encoding="utf-8"?>
<!-- Generator: Adobe Illustrator 15.1.0, SVG Export Plug-In . SVG Version: 6.00 Build 0)  -->
<!DOCTYPE svg PUBLIC "-//W3C//DTD SVG 1.1//EN" "http://www.w3.org/Graphics/SVG/1.1/DTD/svg11.dtd">
<svg version="1.1" xmlns="http://www.w3.org/2000/svg" xmlns:xlink="http://www.w3.org/1999/xlink" x="0px" y="0px" width="123px"
	 height="66px" viewBox="0 0 123 66" enable-background="new 0 0 123 66" xml:space="preserve">
<g id="Layer_2">
</g>
<g id="Layer_1">
	<rect fill="none" stroke="#FFFFFF" stroke-miterlimit="10" width="123" height="66"/>
	<g id="Livello_1-2" transform="translate(-0.5 -0.5)">
		<g id="Raggruppa_423" transform="translate(1.5 1.5)">
			<path id="Tracciato_274" fill="none" stroke="#BBAB99" stroke-width="2" stroke-linecap="round" stroke-linejoin="round" d="
				M40.603,29.641V20.8c0-0.994,0.806-1.8,1.8-1.8h36.187c0.994,0,1.801,0.806,1.801,1.8v8.834"/>
			<path id="Tracciato_275" fill="none" stroke="#BBAB99" stroke-width="2" stroke-linecap="round" stroke-linejoin="round" d="
				M78.273,39.814v-8.051c-0.001-1.172,0.948-2.123,2.12-2.123c0.001,0,0.003,0,0.004,0l0,0c1.172-0.002,2.123,0.947,2.124,2.119
				c0,0.002,0,0.003,0,0.004V45H38.479V31.766c-0.001-1.172,0.948-2.123,2.12-2.125c0.001,0,0.002,0,0.004,0l0,0
				c1.172-0.001,2.123,0.948,2.124,2.12c0,0.001,0,0.003,0,0.005v8.051"/>
			<g id="Raggruppa_422" transform="translate(4.546 3.977)">
				<path id="Tracciato_276" fill="none" stroke="#BBAB99" stroke-width="2" stroke-linecap="round" stroke-linejoin="round" d="
					M38.479,30.429V20.8c-0.011-0.98,0.774-1.785,1.755-1.799h12.646c0.98,0.011,1.766,0.815,1.755,1.797V20.8v9.629H38.479z"/>
				<path id="Tracciato_277" fill="none" stroke="#BBAB99" stroke-width="2" stroke-linecap="round" stroke-linejoin="round" d="
					M57.274,30.429V20.8c-0.011-0.98,0.773-1.785,1.756-1.799h12.643c0.98,0.011,1.766,0.815,1.755,1.797V20.8v9.629H57.268H57.274z
					"/>
			</g>
			
				<line id="Linea_63" fill="none" stroke="#BBAB99" stroke-width="2" stroke-linecap="round" stroke-linejoin="round" x1="43.025" y1="37.316" x2="78.273" y2="37.316"/>
		</g>
	</g>
</g>
</svg>
