<?xml version="1.0" encoding="utf-8"?>
<!-- Generator: Adobe Illustrator 15.1.0, SVG Export Plug-In . SVG Version: 6.00 Build 0)  -->
<!DOCTYPE svg PUBLIC "-//W3C//DTD SVG 1.1//EN" "http://www.w3.org/Graphics/SVG/1.1/DTD/svg11.dtd">
<svg version="1.1" xmlns="http://www.w3.org/2000/svg" xmlns:xlink="http://www.w3.org/1999/xlink" x="0px" y="0px" width="123px"
	 height="66px" viewBox="0 0 123 66" enable-background="new 0 0 123 66" xml:space="preserve">
<g id="Layer_2" display="none">
	
		<image display="inline" overflow="visible" width="123" height="66" xlink:href="2DAA276B.jpg"  transform="matrix(0.9999 0 0 0.9999 0.0078 0.0039)">
	</image>
</g>
<g id="Layer_1">
	<rect fill="none" stroke="#FFFFFF" stroke-miterlimit="10" width="123" height="66"/>
	<g id="Livello_1-2_1_" transform="translate(1 1)">
		<g id="Raggruppa_232" transform="translate(0 0)">
			<path id="Rettangolo_133" fill="none" stroke="#BBAB99" stroke-width="2" stroke-linecap="round" stroke-linejoin="round" d="
				M41.275,5.5h29.708c1.453,0,2.631,1.178,2.631,2.63v34.813c0,1.452-1.178,2.63-2.631,2.63H41.275c-1.452,0-2.63-1.178-2.63-2.63
				V8.13C38.646,6.678,39.823,5.5,41.275,5.5z"/>
			
				<line id="Linea_32" fill="none" stroke="#BBAB99" stroke-width="2" stroke-linecap="round" stroke-linejoin="round" x1="77.131" y1="5.543" x2="77.131" y2="45.365"/>
			<path id="Tracciato_216" fill="none" stroke="#BBAB99" stroke-width="2" stroke-linecap="round" stroke-linejoin="round" d="
				M71.056,45.585v3.31c-0.002,0.886-0.721,1.604-1.606,1.605H42.813c-0.888,0.001-1.608-0.718-1.609-1.605l0,0v-3.31"/>
			<path id="Tracciato_217" fill="none" stroke="#BBAB99" stroke-width="2" stroke-linecap="round" stroke-linejoin="round" d="
				M79.549,10.452h1.2c0.887,0.001,1.605,0.719,1.605,1.606v8.6c0,0.887-0.719,1.604-1.605,1.605h-1.05"/>
			<g id="Raggruppa_230" transform="translate(7.461 14.043)">
				<g id="Raggruppa_228" transform="translate(0)">
					<path id="Tracciato_218" fill="none" stroke="#BBAB99" stroke-width="2" stroke-linecap="round" stroke-linejoin="round" d="
						M42.987,28.264h2.461c0.765,0,1.385-0.619,1.386-1.385c0,0,0-0.001,0-0.002v-7.59c-0.054-1.773-0.54-3.508-1.417-5.05
						c-0.479-0.825-0.709-1.771-0.666-2.724V6.887c0-0.766-0.619-1.387-1.384-1.387c-0.001,0-0.001,0-0.001,0h-1.252
						c-0.766-0.002-1.387,0.617-1.389,1.382c0,0.001,0,0.003,0,0.005v4.627c0.044,0.953-0.188,1.898-0.666,2.724
						c-0.878,1.542-1.364,3.276-1.417,5.05v7.59c0,0.766,0.619,1.386,1.384,1.387c0.001,0,0.002,0,0.003,0H42.987z"/>
					<path id="Tracciato_219" fill="none" stroke="#BBAB99" stroke-width="2" stroke-linecap="round" stroke-linejoin="round" d="
						M46.712,19.293h-2.529c-0.766,0-1.387,0.619-1.387,1.385c0,0,0,0,0,0.002v2c0.002,0.764,0.621,1.383,1.387,1.383h2.631"/>
					
						<line id="Linea_33" fill="none" stroke="#BBAB99" stroke-width="2" stroke-linecap="round" stroke-linejoin="round" x1="40.765" y1="8.919" x2="44.715" y2="8.919"/>
				</g>
				<g id="Raggruppa_229" transform="translate(11.851)">
					<path id="Tracciato_220" fill="none" stroke="#BBAB99" stroke-width="2" stroke-linecap="round" stroke-linejoin="round" d="
						M42.987,28.264h2.461c0.765,0,1.386-0.619,1.386-1.385c0,0,0-0.001,0-0.002v-7.59c-0.054-1.773-0.54-3.508-1.416-5.05
						c-0.479-0.825-0.71-1.771-0.666-2.724V6.887c0-0.766-0.619-1.387-1.385-1.387l0,0h-1.25c-0.766,0-1.387,0.619-1.387,1.384
						c0,0.001,0,0.001,0,0.003v4.627c0.043,0.953-0.188,1.898-0.666,2.724c-0.878,1.542-1.364,3.276-1.417,5.05v7.59
						c-0.001,0.766,0.619,1.386,1.384,1.387c0.001,0,0.002,0,0.002,0H42.987z"/>
					<path id="Tracciato_221" fill="none" stroke="#BBAB99" stroke-width="2" stroke-linecap="round" stroke-linejoin="round" d="
						M46.718,19.293h-2.534c-0.765,0-1.386,0.619-1.386,1.385c0,0,0,0,0,0.002v2c-0.001,0.764,0.619,1.385,1.384,1.385
						c0.001,0,0.001,0,0.002,0h2.632"/>
					
						<line id="Linea_34" fill="none" stroke="#BBAB99" stroke-width="2" stroke-linecap="round" stroke-linejoin="round" x1="40.765" y1="8.919" x2="44.722" y2="8.919"/>
				</g>
			</g>
			
				<line id="Linea_35" fill="none" stroke="#BBAB99" stroke-width="2" stroke-linecap="round" stroke-linejoin="round" x1="41.809" y1="16.223" x2="73.614" y2="16.223"/>
			<g id="Raggruppa_231" transform="translate(5.172 2.754)">
				<path id="Tracciato_222" fill="none" stroke="#BBAB99" stroke-width="2" stroke-linecap="round" stroke-linejoin="round" d="
					M38.645,5.5H44.3v6.24c-0.001,0.952-0.771,1.725-1.724,1.729h-2.2c-0.952-0.004-1.723-0.776-1.724-1.729V5.5l0,0H38.645z"/>
				<path id="Tracciato_223" fill="none" stroke="#BBAB99" stroke-width="2" stroke-linecap="round" stroke-linejoin="round" d="
					M48.128,5.5h5.654v6.24c-0.001,0.954-0.774,1.727-1.729,1.729h-2.191c-0.954-0.002-1.727-0.775-1.729-1.729V5.5l0,0H48.128z"/>
				<path id="Tracciato_224" fill="none" stroke="#BBAB99" stroke-width="2" stroke-linecap="round" stroke-linejoin="round" d="
					M57.611,5.5h5.653v6.24c0,0.954-0.773,1.727-1.728,1.729h-2.192c-0.953-0.002-1.727-0.775-1.728-1.729V5.5l0,0H57.611z"/>
			</g>
		</g>
	</g>
</g>
</svg>
