<?xml version="1.0" encoding="utf-8"?>
<!-- Generator: Adobe Illustrator 15.1.0, SVG Export Plug-In . SVG Version: 6.00 Build 0)  -->
<!DOCTYPE svg PUBLIC "-//W3C//DTD SVG 1.1//EN" "http://www.w3.org/Graphics/SVG/1.1/DTD/svg11.dtd">
<svg version="1.1" id="Layer_1" xmlns="http://www.w3.org/2000/svg" xmlns:xlink="http://www.w3.org/1999/xlink" x="0px" y="0px"
	 width="123px" height="66px" viewBox="0 0 123 66" enable-background="new 0 0 123 66" xml:space="preserve">
<g id="Layer_3">
</g>
<g id="Layer_2">
</g>
<g id="Layer_1_1_">
	<rect fill="none" stroke="#FFFFFF" stroke-miterlimit="10" width="123" height="66"/>
	<g id="Livello_1-2" transform="translate(1 1)">
		<g id="Raggruppa_210" transform="translate(0 0)">
			<path id="Tracciato_188" fill="none" stroke="#BBAB99" stroke-width="2" stroke-linecap="round" stroke-linejoin="round" d="
				M6.157,31.453v-9.652c0.001-0.976,0.792-1.767,1.768-1.768h31.873c0.976,0.001,1.767,0.792,1.768,1.768v9.652"/>
			<path id="Tracciato_189" fill="none" stroke="#BBAB99" stroke-width="2" stroke-linecap="round" stroke-linejoin="round" d="
				M3.723,50.033v-13.82c0.001-0.977,0.792-1.768,1.769-1.77h36.74c0.977,0.002,1.768,0.793,1.769,1.77v13.82"/>
			<g id="Raggruppa_209" transform="translate(7.943 4.8)">
				<path id="Tracciato_190" fill="none" stroke="#BBAB99" stroke-width="2" stroke-linecap="round" stroke-linejoin="round" d="
					M3.723,26.653v-4.736c0.002-1.039,0.845-1.881,1.884-1.884h5.869c1.039,0.003,1.882,0.845,1.884,1.884v4.736"/>
				<path id="Tracciato_191" fill="none" stroke="#BBAB99" stroke-width="2" stroke-linecap="round" stroke-linejoin="round" d="
					M18.477,26.653v-4.736c0.002-1.039,0.845-1.881,1.884-1.884h5.869c1.04,0.003,1.882,0.845,1.884,1.884v4.736"/>
			</g>
			
				<line id="Linea_18" fill="none" stroke="#BBAB99" stroke-width="2" stroke-linecap="round" stroke-linejoin="round" x1="3.945" y1="44.905" x2="43.777" y2="44.905"/>
		</g>
	</g>
	<g id="Livello_1-2_1_" transform="translate(-161.5 -9.035)">
		<g id="Raggruppa_262" transform="translate(162.5 10.035)">
			<path id="Tracciato_237" fill="none" stroke="#BBAB99" stroke-width="2" stroke-linecap="round" stroke-linejoin="round" d="
				M57.27,31.453v-9.652c0.002-0.976,0.792-1.767,1.769-1.768h17.332c0.977,0.001,1.766,0.792,1.768,1.768v9.652"/>
			<path id="Tracciato_238" fill="none" stroke="#BBAB99" stroke-width="2" stroke-linecap="round" stroke-linejoin="round" d="
				M54.836,50.033v-13.82c0-0.977,0.791-1.768,1.768-1.77h22.201c0.977,0.002,1.766,0.793,1.766,1.77v13.82"/>
			<path id="Tracciato_239" fill="none" stroke="#BBAB99" stroke-width="2" stroke-linecap="round" stroke-linejoin="round" d="
				M62.779,31.453v-4.736c0.003-1.039,0.845-1.881,1.885-1.884h5.868c1.04,0.003,1.882,0.845,1.885,1.884v4.736"/>
			
				<line id="Linea_48" fill="none" stroke="#BBAB99" stroke-width="2" stroke-linecap="round" stroke-linejoin="round" x1="55.058" y1="44.905" x2="80.348" y2="44.905"/>
		</g>
	</g>
	<g id="Livello_1-2_2_" transform="translate(-161.5 -9.035)">
		<g id="Raggruppa_262_1_" transform="translate(162.5 10.035)">
			<path id="Tracciato_237_1_" fill="none" stroke="#BBAB99" stroke-width="2" stroke-linecap="round" stroke-linejoin="round" d="
				M93.797,31.453v-9.652c0.002-0.976,0.792-1.767,1.77-1.768h17.332c0.976,0.001,1.766,0.792,1.768,1.768v9.652"/>
			<path id="Tracciato_238_1_" fill="none" stroke="#BBAB99" stroke-width="2" stroke-linecap="round" stroke-linejoin="round" d="
				M91.363,50.033v-13.82c0-0.977,0.791-1.768,1.768-1.77h22.2c0.978,0.002,1.767,0.793,1.767,1.77v13.82"/>
			<path id="Tracciato_239_1_" fill="none" stroke="#BBAB99" stroke-width="2" stroke-linecap="round" stroke-linejoin="round" d="
				M99.307,31.453v-4.736c0.002-1.039,0.844-1.881,1.885-1.884h5.867c1.041,0.003,1.883,0.845,1.885,1.884v4.736"/>
			
				<line id="Linea_48_1_" fill="none" stroke="#BBAB99" stroke-width="2" stroke-linecap="round" stroke-linejoin="round" x1="91.585" y1="44.905" x2="116.875" y2="44.905"/>
		</g>
	</g>
</g>
</svg>
