<?xml version="1.0" encoding="utf-8"?>
<!-- Generator: Adobe Illustrator 15.1.0, SVG Export Plug-In . SVG Version: 6.00 Build 0)  -->
<!DOCTYPE svg PUBLIC "-//W3C//DTD SVG 1.1//EN" "http://www.w3.org/Graphics/SVG/1.1/DTD/svg11.dtd">
<svg version="1.1" xmlns="http://www.w3.org/2000/svg" xmlns:xlink="http://www.w3.org/1999/xlink" x="0px" y="0px" width="123px"
	 height="66px" viewBox="0 0 123 66" enable-background="new 0 0 123 66" xml:space="preserve">
<g id="Layer_2">
</g>
<g id="Layer_1">
	<rect fill="none" stroke="#FFFFFF" stroke-miterlimit="10" width="123" height="66"/>
	<g id="Livello_1-2" transform="translate(-0.5 -0.5)">
		<g id="Raggruppa_396" transform="translate(1.5 1.5)">
			<path id="Tracciato_262" fill="none" stroke="#BBAB99" stroke-width="2" stroke-linecap="round" stroke-linejoin="round" d="
				M44.882,47.091v-0.108c-0.003-0.014-0.005-0.027-0.005-0.041V12.356c-0.001-0.198,0.041-0.395,0.123-0.575
				c0.011-0.042,0.03-0.082,0.056-0.118c0.021-0.041,0.046-0.082,0.072-0.123c0-0.01,0.01-0.015,0.021-0.026
				c0.026-0.041,0.056-0.08,0.087-0.116c0.036-0.041,0.077-0.082,0.118-0.123c0.037-0.036,0.076-0.069,0.118-0.1
				c0.036-0.026,0.077-0.051,0.113-0.077c0.029-0.016,0.061-0.029,0.092-0.041c0.072-0.037,0.148-0.068,0.226-0.092
				c0.038-0.015,0.078-0.025,0.118-0.031c0.044-0.011,0.089-0.02,0.133-0.026c0.057-0.005,0.118-0.01,0.176-0.01H74.67
				c0.1,0,0.197,0.011,0.293,0.031c0.047,0.009,0.094,0.021,0.14,0.036c0.063,0.017,0.123,0.041,0.18,0.072
				c0.06,0.024,0.116,0.055,0.169,0.092c0.096,0.061,0.184,0.131,0.262,0.211c0.024,0.024,0.047,0.05,0.067,0.077
				c0.052,0.058,0.097,0.122,0.134,0.19c0.041,0.066,0.074,0.137,0.1,0.211c0.017,0.032,0.029,0.065,0.035,0.1
				c0.016,0.043,0.027,0.088,0.037,0.133c0.011,0.048,0.02,0.096,0.025,0.144c0.006,0.056,0.01,0.108,0.01,0.164v34.582"/>
			<path id="Tracciato_263" fill="none" stroke="#BBAB99" stroke-width="2" stroke-linecap="round" stroke-linejoin="round" d="
				M72.715,48.399h-24.43"/>
			<g id="Raggruppa_392" transform="translate(4.308 24.224)">
				<path id="Tracciato_264" fill="none" stroke="#BBAB99" stroke-width="2" stroke-linecap="round" stroke-linejoin="round" d="
					M44.877,24.175c0,0,7.912-8.492,23.387-7.979"/>
				<path id="Tracciato_265" fill="none" stroke="#BBAB99" stroke-width="2" stroke-linecap="round" stroke-linejoin="round" d="
					M45.549,13.018c0,0,5.98-1.438,12.719,3.9"/>
				<path id="Tracciato_266" fill="none" stroke="#BBAB99" stroke-width="2" stroke-linecap="round" stroke-linejoin="round" d="
					M57.553,10.898c-1.744,0.689-3.355,1.674-4.765,2.911"/>
				<path id="Tracciato_267" fill="none" stroke="#BBAB99" stroke-width="2" stroke-linecap="round" stroke-linejoin="round" d="
					M52.789,19.139c0,0,8.106-0.96,13.026,4.4"/>
			</g>
			<g id="Raggruppa_393" transform="translate(16.799 13.082)">
				<path id="Tracciato_268" fill="none" stroke="#BBAB99" stroke-width="2" stroke-linecap="round" stroke-linejoin="round" d="
					M52.891,21.161L52.891,21.161c-0.3,3.01-1.966,3.707-3.983,3.707c-1.801,0-3.332-0.56-3.847-2.828
					c-0.13-0.618-0.192-1.248-0.185-1.88c0-3.86,1.807-9.262,4.029-9.262c0.423,0.017,0.826,0.184,1.135,0.472"/>
				
					<line id="Linea_57" fill="none" stroke="#BBAB99" stroke-width="2" stroke-linecap="round" stroke-linejoin="round" x1="48.906" y1="31.298" x2="48.906" y2="16.325"/>
				
					<line id="Linea_58" fill="none" stroke="#BBAB99" stroke-width="2" stroke-linecap="round" stroke-linejoin="round" x1="47.506" y1="17.384" x2="48.908" y2="19.063"/>
				
					<line id="Linea_59" fill="none" stroke="#BBAB99" stroke-width="2" stroke-linecap="round" stroke-linejoin="round" x1="48.906" y1="21.665" x2="50.477" y2="19.986"/>
			</g>
			<g id="Raggruppa_394">
				<path id="Tracciato_269" fill="none" stroke="#BBAB99" stroke-width="2" stroke-linecap="round" stroke-linejoin="round" d="
					M44.877,44.38v-3.467l0.01-28.562c0-0.196,0.038-0.389,0.113-0.57c0.016-0.041,0.034-0.08,0.056-0.118
					c0.025-0.053,0.057-0.103,0.092-0.149c0.026-0.041,0.056-0.08,0.088-0.116c0.036-0.041,0.077-0.082,0.118-0.123
					c0.037-0.036,0.076-0.069,0.118-0.1c0.13-0.096,0.276-0.169,0.431-0.216c0.038-0.016,0.078-0.026,0.118-0.031
					c0.044-0.011,0.089-0.02,0.133-0.026c0.057-0.005,0.118-0.01,0.176-0.01h7.64c1.672,8.995,0.221,18.292-4.112,26.35
					c-0.853,1.591-1.813,3.121-2.875,4.58c-0.139,0.185-0.276,0.365-0.426,0.539l-0.313,0.375"/>
				<path id="Tracciato_270" fill="none" stroke="#BBAB99" stroke-width="2" stroke-linecap="round" stroke-linejoin="round" d="
					M44.877,40.913l0.61,0.734c0.052,0.063,0.101,0.128,0.154,0.2c2.357,3.243,3.278,7.313,2.547,11.255h-2.783
					c-0.287,0.002-0.521-0.23-0.523-0.518c0-0.004,0-0.008,0-0.012v-11.66H44.877z"/>
			</g>
			<g id="Raggruppa_395" transform="translate(21.481 0)">
				<path id="Tracciato_271" fill="none" stroke="#BBAB99" stroke-width="2" stroke-linecap="round" stroke-linejoin="round" d="
					M54.638,44.38V12.352c0.002-0.053-0.002-0.106-0.01-0.159c-0.01-0.094-0.031-0.187-0.063-0.277
					c-0.008-0.035-0.02-0.068-0.035-0.1c-0.025-0.074-0.059-0.145-0.1-0.211c-0.037-0.068-0.082-0.132-0.134-0.19
					c-0.021-0.027-0.043-0.053-0.067-0.077c-0.078-0.08-0.166-0.15-0.262-0.211c-0.053-0.037-0.109-0.067-0.169-0.092
					c-0.057-0.031-0.117-0.055-0.18-0.072c-0.046-0.014-0.093-0.026-0.14-0.036c-0.096-0.021-0.193-0.031-0.293-0.031h-7.631
					c-1.405,7.523-0.623,15.293,2.254,22.385c0.127,0.323,0.262,0.643,0.399,0.96l0,0c1.161,2.679,2.612,5.222,4.329,7.582
					c0.133,0.185,0.271,0.365,0.421,0.539l0.313,0.375"/>
				<path id="Tracciato_272" fill="none" stroke="#BBAB99" stroke-width="2" stroke-linecap="round" stroke-linejoin="round" d="
					M54.642,40.913v11.666c0,0.291-0.236,0.527-0.529,0.528h-2.776c-0.667-3.578,0.025-7.276,1.94-10.371
					c0.19-0.303,0.391-0.601,0.601-0.894c0.052-0.066,0.101-0.127,0.154-0.199L54.642,40.913z"/>
			</g>
		</g>
	</g>
</g>
</svg>
