<?xml version="1.0" encoding="utf-8"?>
<!-- Generator: Adobe Illustrator 15.1.0, SVG Export Plug-In . SVG Version: 6.00 Build 0)  -->
<!DOCTYPE svg PUBLIC "-//W3C//DTD SVG 1.1//EN" "http://www.w3.org/Graphics/SVG/1.1/DTD/svg11.dtd">
<svg version="1.1" xmlns="http://www.w3.org/2000/svg" xmlns:xlink="http://www.w3.org/1999/xlink" x="0px" y="0px" width="123px"
	 height="66px" viewBox="0 0 123 66" enable-background="new 0 0 123 66" xml:space="preserve">
<g id="Layer_2">
</g>
<g id="Layer_1">
	<rect fill="none" stroke="#FFFFFF" stroke-miterlimit="10" width="123" height="66"/>
	<g id="Livello_1-2_1_" transform="translate(1 1)">
		<g id="Raggruppa_224" transform="translate(0 0)">
			<g id="Raggruppa_220" transform="translate(6.464 45)">
				
					<line id="Linea_30" fill="none" stroke="#BBAB99" stroke-width="2" stroke-linecap="round" stroke-linejoin="round" x1="35.632" y1="9.5" x2="44.629" y2="9.5"/>
				
					<line id="Linea_31" fill="none" stroke="#BBAB99" stroke-width="2" stroke-linecap="round" stroke-linejoin="round" x1="63.442" y1="9.5" x2="72.439" y2="9.5"/>
			</g>
			<path id="Rettangolo_122" fill="none" stroke="#BBAB99" stroke-width="2" stroke-linecap="round" stroke-linejoin="round" d="
				M38.462,9.5h44.077c1.563,0,2.829,1.267,2.829,2.83v33.581c0,1.563-1.267,2.83-2.829,2.83H38.462c-1.563,0-2.83-1.268-2.83-2.83
				V12.331C35.632,10.767,36.898,9.5,38.462,9.5z"/>
			<path id="Tracciato_210" fill="none" stroke="#BBAB99" stroke-width="2" stroke-linecap="round" stroke-linejoin="round" d="
				M78.181,29.121c-0.002,4.207-3.414,7.615-7.62,7.611c-4.206-0.002-7.614-3.412-7.612-7.619c0.003-4.205,3.413-7.613,7.619-7.611
				S78.183,24.914,78.181,29.121L78.181,29.121z"/>
			<g id="Raggruppa_221" transform="translate(7.042 13.068)">
				
					<rect id="Rettangolo_123" x="35.632" y="9.5" fill="none" stroke="#BBAB99" stroke-width="2" stroke-linecap="round" stroke-linejoin="round" width="0.736" height="0.736"/>
				
					<rect id="Rettangolo_124" x="41.842" y="9.5" fill="none" stroke="#BBAB99" stroke-width="2" stroke-linecap="round" stroke-linejoin="round" width="0.736" height="0.736"/>
				
					<rect id="Rettangolo_125" x="48.058" y="9.5" fill="none" stroke="#BBAB99" stroke-width="2" stroke-linecap="round" stroke-linejoin="round" width="0.737" height="0.736"/>
			</g>
			<g id="Raggruppa_222" transform="translate(7.042 19.265)">
				
					<rect id="Rettangolo_126" x="35.632" y="9.5" fill="none" stroke="#BBAB99" stroke-width="2" stroke-linecap="round" stroke-linejoin="round" width="0.736" height="0.736"/>
				
					<rect id="Rettangolo_127" x="41.842" y="9.5" fill="none" stroke="#BBAB99" stroke-width="2" stroke-linecap="round" stroke-linejoin="round" width="0.736" height="0.736"/>
				
					<rect id="Rettangolo_128" x="48.058" y="9.5" fill="none" stroke="#BBAB99" stroke-width="2" stroke-linecap="round" stroke-linejoin="round" width="0.737" height="0.736"/>
			</g>
			<g id="Raggruppa_223" transform="translate(7.042 25.462)">
				
					<rect id="Rettangolo_129" x="35.632" y="9.5" fill="none" stroke="#BBAB99" stroke-width="2" stroke-linecap="round" stroke-linejoin="round" width="0.736" height="0.736"/>
				
					<rect id="Rettangolo_130" x="41.842" y="9.5" fill="none" stroke="#BBAB99" stroke-width="2" stroke-linecap="round" stroke-linejoin="round" width="0.736" height="0.736"/>
				
					<rect id="Rettangolo_131" x="48.058" y="9.5" fill="none" stroke="#BBAB99" stroke-width="2" stroke-linecap="round" stroke-linejoin="round" width="0.737" height="0.736"/>
			</g>
			
				<line id="Linea_8" fill="none" stroke="#BBAB99" stroke-width="2" stroke-linecap="round" stroke-linejoin="round" x1="68.941" y1="30.738" x2="72.18" y2="27.501"/>
		</g>
	</g>
</g>
</svg>
