<?xml version="1.0" encoding="utf-8"?>
<!-- Generator: Adobe Illustrator 15.1.0, SVG Export Plug-In . SVG Version: 6.00 Build 0)  -->
<!DOCTYPE svg PUBLIC "-//W3C//DTD SVG 1.1//EN" "http://www.w3.org/Graphics/SVG/1.1/DTD/svg11.dtd">
<svg version="1.1" xmlns="http://www.w3.org/2000/svg" xmlns:xlink="http://www.w3.org/1999/xlink" x="0px" y="0px" width="123px"
	 height="66px" viewBox="0 0 123 66" enable-background="new 0 0 123 66" xml:space="preserve">
<g id="Layer_2_1_">
</g>
<g id="Layer_1">
	<g id="Layer_3">
	</g>
	<g id="Layer_2">
	</g>
	<g id="Livello_1-2" transform="translate(1 1)">
		<g id="Raggruppa_122" transform="translate(0 0)">
			<path id="Tracciato_101" fill="none" stroke="#BAAA98" stroke-width="2" stroke-linecap="round" stroke-linejoin="round" d="
				M55.459,46.71c0,0,0.812,5.538-2.237,8.084"/>
			<path id="Tracciato_102" fill="none" stroke="#BAAA98" stroke-width="2" stroke-linecap="round" stroke-linejoin="round" d="
				M57.611,28.99l1.65,16.937l-7.273,1.287l-3.734-13.6"/>
			<path id="Tracciato_103" fill="none" stroke="#BAAA98" stroke-width="2" stroke-linecap="round" stroke-linejoin="round" d="
				M79.793,26.864c-3.809-0.917-7.699-1.46-11.614-1.622c-4.958,0-5.937,0.608-6.455,0.853c-0.263,0.133-0.511,0.292-0.741,0.476
				c-4.862,4.856-12.742,4.853-17.598-0.011c-2.33-2.332-3.639-5.493-3.641-8.79v-0.112C39.74,10.785,45.311,5.21,52.184,5.206
				c3.299-0.001,6.464,1.307,8.799,3.637c0.229,0.186,0.477,0.346,0.741,0.476c0.517,0.238,1.49,0.853,6.455,0.853
				c3.915-0.162,7.806-0.705,11.614-1.622v18.321V26.864z"/>
			
				<line id="Linea_6" fill="none" stroke="#BAAA98" stroke-width="2" stroke-linecap="round" stroke-linejoin="round" x1="46.521" y1="17.703" x2="56.43" y2="17.703"/>
			
				<line id="Linea_7" fill="none" stroke="#BAAA98" stroke-width="2" stroke-linecap="round" stroke-linejoin="round" x1="49.164" y1="13.018" x2="54.115" y2="13.018"/>
			
				<line id="Linea_8" fill="none" stroke="#BAAA98" stroke-width="2" stroke-linecap="round" stroke-linejoin="round" x1="49.164" y1="22.382" x2="54.115" y2="22.382"/>
			<line id="Linea_9" fill="none" stroke="#BAAA98" stroke-width="2" x1="74.318" y1="9.641" x2="74.318" y2="25.767"/>
			<path id="Tracciato_104" fill="none" stroke="#BAAA98" stroke-width="2" stroke-linecap="round" d="M95.256,14.585
				c-1.145-1.539-3.318-1.861-4.86-0.72c-0.171,0.127-0.331,0.27-0.476,0.427c-0.9,0.881-2.629,2.091-5.077-0.587"/>
			<path id="Tracciato_105" fill="none" stroke="#BAAA98" stroke-width="2" stroke-linecap="round" d="M95.256,21.522
				c-1.145-1.539-3.318-1.861-4.86-0.72c-0.171,0.127-0.331,0.27-0.476,0.427c-0.9,0.881-2.629,2.091-5.077-0.587"/>
		</g>
	</g>
</g>
</svg>
